<svg width="2694" height="800" viewBox="0 0 2694 800" fill="none" xmlns="http://www.w3.org/2000/svg">
<path d="M1455.26 412.007H1353.3L1292.52 259.6H1198.89L1267.52 424.258C1286.63 469.833 1327.32 486.985 1392.52 486.985C1409.67 486.985 1422.42 486.005 1429.77 482.574V493.355C1414.58 516.388 1391.05 525.209 1345.95 525.209H1301.83V598.227H1358.2C1444.48 598.227 1490.56 552.162 1527.81 456.111L1605.26 259.6H1514.09L1455.26 412.007Z" fill="#FF7377"/>
<path d="M1890.05 376.722H1712.11V260.089H1627.31V348.299C1627.31 421.807 1689.56 457.09 1770.94 457.09C1814.07 457.09 1858.19 451.7 1889.56 439.939V525.208H1974.37V260.089H1889.56V376.722H1890.05Z" fill="#FF7377"/>
<path d="M2369.01 257.151C2335.18 257.151 2323.42 264.011 2292.05 293.414L2145.48 431.119H2133.22V259.601H2048.42V495.806C2048.42 522.269 2070.48 527.659 2104.79 527.659C2138.61 527.659 2154.3 520.799 2185.67 491.396L2328.32 357.611H2340.58V524.719H2425.38V289.004C2425.38 262.541 2402.83 257.151 2369.01 257.151Z" fill="#FF7377"/>
<path d="M516.541 308.115L510.169 166H480.267L473.894 308.115L458.698 313.506L369.972 202.264L345.462 220.396L423.404 338.008C447.423 373.782 518.502 353.2 516.541 308.115Z" fill="#FF7377"/>
<path d="M589.07 391.913L721.914 341.928L713.09 313.505L576.815 351.729L566.521 338.498L644.463 218.925L620.933 202.263L532.207 313.015C506.226 345.848 545.933 408.575 589.07 391.913Z" fill="#FF7377"/>
<path d="M423.885 462.482L344.963 580.094L369.473 598.226L458.199 486.984L473.885 492.375L480.258 634H510.16L516.532 492.375C518.493 446.8 448.885 424.748 423.885 462.482Z" fill="#FF7377"/>
<path d="M414.079 351.73L276.824 313.506L268 341.929L401.334 391.914L400.844 408.576L268 457.581L276.824 486.004L414.079 448.27C458.197 436.999 457.217 363.981 414.079 351.73Z" fill="#FF7377"/>
<path d="M532.212 487.476L620.938 597.738L645.448 579.606L566.526 461.994L576.82 448.762L713.586 486.496L722.409 458.073L589.075 408.578C545.938 392.406 503.781 451.213 532.212 487.476Z" fill="#FF7377"/>
<path d="M1019.96 253.228C970.448 253.228 939.076 258.619 924.86 285.572L798.389 525.207H896.428L993.488 335.557H1046.43L1143.49 524.717H1241.04L1116.53 287.042C1101.33 258.129 1069.47 253.228 1019.96 253.228Z" fill="#FF7377"/>
</svg>
